<?xml version="1.0" encoding="utf-8"?>
<!-- Generator: Adobe Illustrator 26.0.2, SVG Export Plug-In . SVG Version: 6.00 Build 0)  -->
<svg version="1.1"
	 id="svg3041" inkscape:export-ydpi="300" xmlns:cc="http://creativecommons.org/ns#" xmlns:dc="http://purl.org/dc/elements/1.1/" xmlns:inkscape="http://www.inkscape.org/namespaces/inkscape" xmlns:rdf="http://www.w3.org/1999/02/22-rdf-syntax-ns#" xmlns:sodipodi="http://sodipodi.sourceforge.net/DTD/sodipodi-0.dtd" xmlns:svg="http://www.w3.org/2000/svg"
	 xmlns="http://www.w3.org/2000/svg" xmlns:xlink="http://www.w3.org/1999/xlink" x="0px" y="0px" viewBox="0 0 1400 130"
	 style="enable-background:new 0 0 1400 130;" xml:space="preserve">
<style type="text/css">
	.st0{fill:none;stroke:#000000;stroke-width:0.9197;stroke-miterlimit:2.3888;}
	.st1{fill:none;stroke:#000000;stroke-width:3.8818;stroke-miterlimit:5.9719;}
	.st2{fill:#FFFFFF;}
	.st3{font-family:'MyriadPro-Regular';}
	.st4{font-size:70.8661px;}
</style>
<sodipodi:namedview  bordercolor="#666666" borderopacity="1" gridtolerance="10" guidetolerance="10" id="namedview3043" inkscape:current-layer="svg3041" inkscape:cx="185.93011" inkscape:cy="17.899449" inkscape:pageopacity="0" inkscape:pageshadow="2" inkscape:window-height="510" inkscape:window-maximized="0" inkscape:window-width="1358" inkscape:window-x="0" inkscape:window-y="201" inkscape:zoom="1.223675" objecttolerance="10" pagecolor="#ffffff" showgrid="false">
	</sodipodi:namedview>
<image style="overflow:visible;enable-background:new    ;" width="1400" height="130" id="image3345" xlink:href="2993AF9E.jpeg"  transform="matrix(1 0 0 1 0 -1.464844e-05)">
</image>
<image style="overflow:visible;enable-background:new    ;" width="1400" height="130" id="image3049" xlink:href="2993AFA2.jpeg"  transform="matrix(1 0 0 1 164 -1.464844e-05)">
</image>
<g id="g1497" transform="matrix(0.59719485,0,0,0.59719485,-3.6486359,-76.616848)">
	<path id="path7630" inkscape:connector-curvature="0" class="st0" d="M174.6,232.6c0-1.7,1.1-3.2,2.6-3.7c-0.4-1.7-1.1-3.2-1.9-4.6
		c-0.5,0.2-1.1,0.3-1.6,0.3c-1,0-2-0.4-2.8-1.2c-1.2-1.2-1.5-3-0.8-4.5c-1.4-0.9-3-1.5-4.6-1.9c-0.6,1.5-2,2.6-3.7,2.6
		c-1.7,0-3.2-1.1-3.7-2.6c-1.7,0.4-3.2,1.1-4.6,1.9c0.7,1.5,0.4,3.3-0.8,4.5c-0.8,0.8-1.8,1.2-2.8,1.2c-0.6,0-1.1-0.1-1.6-0.3
		c-0.9,1.4-1.5,3-1.9,4.6c1.5,0.6,2.6,2,2.6,3.7c0,1.7-1.1,3.2-2.6,3.7c0.4,1.7,1.1,3.2,1.9,4.6c0.5-0.2,1.1-0.3,1.6-0.3
		c1,0,2,0.4,2.8,1.2c1.2,1.2,1.5,3,0.8,4.5c1.4,0.9,3,1.5,4.6,1.9c0.6-1.5,2-2.6,3.7-2.6c1.7,0,3.2,1.1,3.7,2.6
		c1.7-0.4,3.2-1.1,4.6-1.9c-0.7-1.5-0.4-3.3,0.8-4.5c0.8-0.8,1.8-1.2,2.8-1.2c0.6,0,1.1,0.1,1.6,0.3c0.9-1.4,1.5-3,1.9-4.6
		C175.7,235.8,174.6,234.4,174.6,232.6L174.6,232.6z M161.7,239.1c-3.6,0-6.5-2.9-6.5-6.5c0-3.6,2.9-6.5,6.5-6.5
		c3.6,0,6.5,2.9,6.5,6.5C168.1,236.2,165.2,239.1,161.7,239.1z"/>
	<g id="g7" transform="translate(-34.650714,-214.3055)">
		<path id="path9" inkscape:connector-curvature="0" d="M117.9,478.7v-11.2c0-5.5,1.5-9.7,4.4-12.5c2.9-2.9,6.8-4.3,11.6-4.3
			c4.8,0,8.7,1.4,11.6,4.3c2.9,2.9,4.4,7,4.4,12.5v11.2H117.9z M142.2,459c-1.9-2-4.7-2.9-8.3-2.9c-3.6,0-6.4,1-8.3,2.9
			c-1.9,2-2.9,4.8-2.9,8.6v5.9h22.5v-5.9C145.1,463.8,144.1,460.9,142.2,459z"/>
		<path id="path11" inkscape:connector-curvature="0" d="M117.9,444.9v-22h4.8v16.8h8.7v-15.4h4.8v15.4h9v-17.1h4.8v22.3H117.9z"/>
	</g>
	<g id="g13" transform="translate(-34.650714,-214.3055)">
		<path id="path15" inkscape:connector-curvature="0" d="M226.9,495.6c0-2.8,1.1-5,3.2-6.5c2.1-1.5,4.8-2.3,8-2.3
			c3.9,0,7.2,0.8,10,2.4v5c-2.7-1.8-5.9-2.7-9.6-2.6c-4.2,0-6.3,1.3-6.3,3.8c0,1.2,0.6,2.3,1.9,3.1c1.3,0.8,2.8,1.5,4.6,2.2
			c1.8,0.6,3.6,1.2,5.4,1.9c1.8,0.6,3.3,1.7,4.6,3.1c1.2,1.4,1.8,3.2,1.8,5.4c0,3.1-1.1,5.4-3.4,6.9c-2.3,1.4-5.2,2.2-8.7,2.1
			c-4.3,0-8-0.9-11.3-2.8v-5.1c3.3,2.1,6.9,3.2,11,3.2c4.8,0,7.2-1.3,7.2-4c0-1.2-0.4-2.1-1.3-3c-0.9-0.8-2-1.5-3.4-1.9
			c-1.3-0.5-2.8-1-4.4-1.5s-3.1-1.2-4.4-1.8c-1.4-0.7-2.5-1.6-3.4-2.9C227.4,498.9,226.9,497.3,226.9,495.6L226.9,495.6z"/>
		<path id="path17" inkscape:connector-curvature="0" d="M252.1,487.4h26.4v4.8H268v27.2h-5.2v-27.2h-10.6L252.1,487.4z"/>
		<path id="path19" inkscape:connector-curvature="0" d="M283,487.4h22v4.8h-16.8v8.7h15.4v4.8h-15.4v9h17.1v4.8H283L283,487.4z"/>
		<path id="path21" inkscape:connector-curvature="0" d="M340.4,487.4h4.7v32h-5.2V497l-10.1,15.2h-3.1L316.5,497v22.4h-5.2v-32h4.7
			l12.2,18.4L340.4,487.4z"/>
	</g>
	<g id="g23" transform="translate(-34.650714,-214.3055)">
		<path id="path25" inkscape:connector-curvature="0" d="M275.6,422.1h34.1v5.8h-28v16.4h25.9v5.8h-25.9v16.8h28.5v5.8h-34.5V422.1z
			"/>
		<path id="path27" inkscape:connector-curvature="0" d="M320.8,472.7h-6.6l22-50.6h6.7l22,50.6h-6.5l-5.2-12.2H326L320.8,472.7z
			 M338.8,430.1l-10.5,24.7h22.5l-10.5-24.7c-0.1-0.2-0.4-0.9-0.8-1.9C339.2,429.3,338.9,429.9,338.8,430.1L338.8,430.1z"/>
		<path id="path29" inkscape:connector-curvature="0" d="M360.7,422.1h41.6v5.8h-17.8v44.8h-6.1v-44.8h-17.8V422.1z"/>
		<path id="path31" inkscape:connector-curvature="0" d="M411.5,422.1h6.1v50.6h-6.1V422.1z"/>
		<path id="path33" inkscape:connector-curvature="0" d="M430.8,422.1h34.1v5.8h-28v16.4h25.9v5.8h-25.9v16.8h28.5v5.8h-34.5
			L430.8,422.1L430.8,422.1z"/>
		<path id="path35" inkscape:connector-curvature="0" d="M497,472.7h-6.3l-21-50.6h6.5l17.6,43.9l17.6-43.9h6.5L497,472.7z"/>
		<path id="path37" inkscape:connector-curvature="0" d="M525.4,422.1h34.1v5.8h-28v16.4h25.9v5.8h-25.9v16.8H560v5.8h-34.5
			L525.4,422.1L525.4,422.1z"/>
	</g>
	<g id="g39" transform="translate(-34.650714,-214.3055)">
		<path id="path41" inkscape:connector-curvature="0" d="M230.8,472.7h-6.1v-50.6h19.8c3.3,0,6.3,0.4,9,1.3c2.7,0.9,5,2.5,7,4.9
			c2,2.4,2.9,5.4,2.9,9.1c0,4.3-1.3,7.7-3.8,10.1c-2.5,2.4-5.8,4-9.8,4.7l17.1,20.4h-7.6l-16.6-19.9h-12.1L230.8,472.7L230.8,472.7z
			 M230.8,427.9V447h14c3.6,0,6.5-0.7,8.9-2.2c2.4-1.5,3.6-3.9,3.6-7.3c0-3.5-1.2-5.9-3.6-7.4c-2.4-1.4-5.4-2.2-8.9-2.2H230.8z"/>
	</g>
	<g id="g43" transform="translate(-34.650714,-214.3055)">
		<g id="g45">
			<polygon id="polygon47" points="211.3,477.2 219.2,499.1 188.3,485.6 193.2,480.6 207.9,487.1 205.2,479.4 			"/>
		</g>
		<g id="g49">
			<path id="path51" inkscape:connector-curvature="0" d="M192.9,480.5c-16-1.6-28.5-15.2-28.5-31.7c0-17.6,14.3-31.8,31.8-31.8
				c6.9,0,13.3,2.2,18.5,6c1-2,1.9-3.9,2.9-5.9c-6.1-4.1-13.5-6.6-21.4-6.6c-21.1,0-38.3,17.2-38.3,38.3s17.2,38.3,38.3,38.3
				c3.2,0,6.3-0.4,9.3-1.2L192.9,480.5z"/>
			<path id="path53" inkscape:connector-curvature="0" d="M205.1,479.4l2.2,6.1c5.2-1.6,9.9-4.3,13.9-7.7l-4.3-4.9
				C213.6,475.8,209.6,478.1,205.1,479.4z"/>
		</g>
	</g>
	<g id="g55" transform="translate(-34.650714,-214.3055)">
		<path id="path57" inkscape:connector-curvature="0" class="st1" d="M219.3,516.1h-120c-5.5,0-9.9-4.5-9.9-9.9V397.9
			c0-5.5,4.5-9.9,9.9-9.9h482.1c5.5,0,9.9,4.5,9.9,9.9v108.2c0,5.5-4.5,9.9-9.9,9.9H341.3"/>
	</g>
</g>
<rect x="24" y="8.9" class="st2" width="1364" height="108"/>
<text transform="matrix(1 0 0 1 151.3337 81.5671)" class="st3 st4">Toke  workshop Arduino</text>
</svg>
